<?xml version="1.0" encoding="UTF-8" standalone="no"?>
<svg
   height="59.999763"
   preserveAspectRatio="xMidYMid"
   viewBox="0 0 59.999999 59.999764"
   width="60"
   version="1.1"
   id="svg22"
   sodipodi:docname="ansible.svg"
   inkscape:version="1.1.2 (0a00cf5339, 2022-02-04, custom)"
   xmlns:inkscape="http://www.inkscape.org/namespaces/inkscape"
   xmlns:sodipodi="http://sodipodi.sourceforge.net/DTD/sodipodi-0.dtd"
   xmlns="http://www.w3.org/2000/svg"
   xmlns:svg="http://www.w3.org/2000/svg">
  <defs
     id="defs26" />
  <sodipodi:namedview
     id="namedview24"
     pagecolor="#505050"
     bordercolor="#eeeeee"
     borderopacity="1"
     inkscape:pageshadow="0"
     inkscape:pageopacity="0"
     inkscape:pagecheckerboard="0"
     showgrid="false"
     fit-margin-top="0"
     fit-margin-left="0"
     fit-margin-right="0"
     fit-margin-bottom="0"
     inkscape:zoom="5.6922319"
     inkscape:cx="31.973399"
     inkscape:cy="29.953101"
     inkscape:window-width="1366"
     inkscape:window-height="707"
     inkscape:window-x="0"
     inkscape:window-y="0"
     inkscape:window-maximized="1"
     inkscape:current-layer="svg22" />
  <path
     id="path18"
     style="stroke-width:1;fill:#4d4d4d"
     d="M 30 0 C 13.43213 0 0 13.432082 0 30 C 0 46.569164 13.432082 60 30 60 C 46.569282 60 60 46.569093 60 30 C 60 13.43213 46.569329 0 30 0 z M 30.505859 11.894531 C 31.333158 11.894531 32.014582 12.333278 32.355469 13.162109 L 44.296875 41.900391 C 44.428576 42.252028 44.5 42.579158 44.5 42.785156 C 44.5 44.050907 43.478316 44.927734 42.308594 44.927734 C 41.724502 44.927734 41.275062 44.700803 40.652344 44.197266 L 25.169922 31.6875 L 19.980469 44.685547 L 15.498047 44.685547 L 28.603516 13.162109 C 28.944406 12.333275 29.677027 11.894531 30.505859 11.894531 z M 30.505859 18.326172 L 26.541016 28.25 L 38.267578 37.486328 L 30.505859 18.326172 z " />
</svg>
