<?xml version="1.0" encoding="UTF-8" standalone="no"?>
<svg
   width="60.000004"
   height="58.217636"
   viewBox="0 -10.44 60.000003 58.217635"
   version="1.1"
   id="svg6"
   sodipodi:docname="kubernetes.svg"
   inkscape:version="1.1.2 (0a00cf5339, 2022-02-04, custom)"
   xmlns:inkscape="http://www.inkscape.org/namespaces/inkscape"
   xmlns:sodipodi="http://sodipodi.sourceforge.net/DTD/sodipodi-0.dtd"
   xmlns="http://www.w3.org/2000/svg"
   xmlns:svg="http://www.w3.org/2000/svg">
  <defs
     id="defs10" />
  <sodipodi:namedview
     id="namedview8"
     pagecolor="#505050"
     bordercolor="#eeeeee"
     borderopacity="1"
     inkscape:pageshadow="0"
     inkscape:pageopacity="0"
     inkscape:pagecheckerboard="0"
     showgrid="false"
     fit-margin-top="0"
     fit-margin-left="0"
     fit-margin-right="0"
     fit-margin-bottom="0"
     inkscape:zoom="4.1482274"
     inkscape:cx="26.035217"
     inkscape:cy="30.977087"
     inkscape:window-width="1366"
     inkscape:window-height="707"
     inkscape:window-x="0"
     inkscape:window-y="0"
     inkscape:window-maximized="1"
     inkscape:current-layer="svg6" />
  <path
     id="path2"
     style="stroke-width:11.7141;fill:#4d4d4d"
     d="M 29.791016 0.005859375 A 3.9887885 3.9560928 0 0 0 28.263672 0.39257812 L 7.4042969 10.359375 A 3.9887885 3.9560928 0 0 0 5.2460938 13.042969 L 0.099609375 35.429688 A 3.9887885 3.9560928 0 0 0 0.64257812 38.462891 A 3.9887885 3.9560928 0 0 0 0.86914062 38.777344 L 15.306641 56.728516 A 3.9887885 3.9560928 0 0 0 18.425781 58.216797 L 41.578125 58.212891 A 3.9887885 3.9560928 0 0 0 44.697266 56.726562 L 59.128906 38.773438 A 3.9887885 3.9560928 0 0 0 59.900391 35.423828 L 54.746094 13.037109 A 3.9887885 3.9560928 0 0 0 52.587891 10.353516 L 31.726562 0.39257812 A 3.9887885 3.9560928 0 0 0 29.791016 0.005859375 z M 29.998047 7.6230469 C 30.687559 7.6230469 31.247962 8.2456322 31.248047 9.0117188 C 31.248347 9.120306 31.2538 9.2648424 31.25 9.3652344 C 31.233524 9.807181 31.138038 10.145618 31.080078 10.552734 C 30.97508 11.423993 30.88312 12.147031 30.9375 12.818359 C 30.986757 13.154365 31.183164 13.285952 31.345703 13.441406 C 31.349459 13.531981 31.363903 13.833619 31.375 14 C 35.344667 14.352652 39.032383 16.168495 41.740234 19.007812 L 42.214844 18.667969 C 42.375761 18.67753 42.730554 18.726794 42.972656 18.585938 C 43.531385 18.209809 44.038542 17.687901 44.654297 17.0625 C 44.936436 16.763288 45.143364 16.477824 45.478516 16.189453 C 45.55509 16.123635 45.672612 16.036276 45.757812 15.96875 C 46.356749 15.490949 47.189146 15.541069 47.619141 16.080078 C 48.049051 16.619087 47.911352 17.444159 47.3125 17.921875 C 47.228072 17.989827 47.117529 18.083162 47.037109 18.142578 C 46.681468 18.405253 46.354446 18.539494 46 18.748047 C 45.253292 19.209201 44.633525 19.591751 44.142578 20.052734 C 43.910618 20.300812 43.928433 20.535762 43.908203 20.759766 C 43.83897 20.82345 43.594176 21.040567 43.464844 21.158203 C 44.54107 22.75995 45.348058 24.57676 45.804688 26.564453 C 46.257048 28.533877 46.327801 30.503218 46.066406 32.394531 L 46.570312 32.541016 C 46.660972 32.669323 46.847468 32.980444 47.109375 33.082031 C 47.751764 33.284352 48.474775 33.359662 49.347656 33.451172 C 49.757419 33.485152 50.110402 33.464585 50.544922 33.546875 C 50.648899 33.566515 50.801152 33.606439 50.908203 33.630859 C 51.644155 33.808423 52.116797 34.485881 51.964844 35.152344 C 51.812804 35.818892 51.093822 36.223748 50.353516 36.064453 C 50.348136 36.063253 50.339584 36.0638 50.333984 36.0625 C 50.325614 36.0607 50.318847 36.056687 50.310547 36.054688 C 50.207337 36.031987 50.078511 36.008535 49.988281 35.984375 C 49.561103 35.870069 49.251171 35.699822 48.867188 35.552734 C 48.041089 35.256509 47.357954 35.008489 46.691406 34.912109 C 46.352839 34.885389 46.179995 35.048093 45.992188 35.171875 C 45.901015 35.153605 45.620584 35.103565 45.458984 35.078125 C 44.262646 38.837787 41.713472 42.093473 38.259766 44.132812 C 38.319352 44.276742 38.42146 44.582509 38.46875 44.636719 C 38.38978 44.84732 38.271716 45.048993 38.373047 45.373047 C 38.615405 46.001521 39.00779 46.616018 39.480469 47.355469 C 39.709338 47.697024 39.941848 47.958627 40.148438 48.349609 C 40.197865 48.443172 40.26478 48.586687 40.3125 48.685547 C 40.633567 49.372071 40.397517 50.162076 39.78125 50.458984 C 39.160032 50.758197 38.387192 50.442148 38.054688 49.751953 C 38.007223 49.654207 37.940681 49.524011 37.900391 49.431641 C 37.72351 49.026488 37.661489 48.680984 37.537109 48.289062 C 37.253604 47.458523 37.02183 46.770804 36.681641 46.189453 C 36.491357 45.908167 36.256899 45.872314 36.042969 45.802734 C 36.003358 45.734526 35.856734 45.463208 35.777344 45.322266 A 16.200158 16.200158 0 0 1 33.634766 45.966797 C 30.395246 46.702322 27.153056 46.405049 24.255859 45.292969 L 23.972656 45.804688 C 23.76214 45.861029 23.558145 45.917867 23.433594 46.066406 C 22.978842 46.608916 22.797168 47.478823 22.466797 48.308594 C 22.342416 48.700515 22.284303 49.047886 22.107422 49.453125 C 22.067385 49.544895 22.000585 49.673914 21.953125 49.771484 C 21.953125 49.771484 21.953125 49.773438 21.953125 49.773438 C 21.952725 49.774437 21.949731 49.776344 21.949219 49.777344 C 21.61603 50.465235 20.846842 50.778998 20.226562 50.480469 C 19.610124 50.183647 19.374416 49.39364 19.695312 48.707031 C 19.743032 48.608261 19.806039 48.464654 19.855469 48.371094 C 20.061972 47.980111 20.296521 47.714688 20.525391 47.373047 C 20.99807 46.633596 21.413978 45.970101 21.65625 45.341797 C 21.717203 45.132988 21.626702 44.848003 21.544922 44.636719 L 21.771484 44.091797 C 18.448134 42.122544 15.82265 38.984324 14.570312 35.101562 L 14.027344 35.195312 C 13.881451 35.113616 13.586892 34.919636 13.308594 34.941406 C 12.641961 35.037871 11.958827 35.285806 11.132812 35.582031 C 10.748745 35.729204 10.438812 35.897327 10.011719 36.011719 C 9.9213998 36.035869 9.7927476 36.061364 9.6894531 36.083984 C 9.6811731 36.085984 9.6743856 36.089897 9.6660156 36.091797 C 9.6604676 36.092897 9.6518644 36.09255 9.6464844 36.09375 C 8.9061789 36.253302 8.1873662 35.848189 8.0351562 35.181641 C 7.8830316 34.515179 8.3559305 33.837976 9.0917969 33.660156 C 9.0972599 33.658956 9.1056081 33.65755 9.1113281 33.65625 L 9.1210938 33.652344 C 9.2257541 33.627844 9.3594671 33.594272 9.4550781 33.576172 C 9.8895125 33.493872 10.242581 33.514619 10.652344 33.480469 C 11.52514 33.388955 12.248235 33.313648 12.890625 33.111328 C 13.094311 33.027753 13.289866 32.748303 13.427734 32.570312 L 13.949219 32.417969 C 13.363258 28.360631 14.355925 24.378109 16.498047 21.154297 L 16.097656 20.796875 C 16.072131 20.64108 16.037438 20.280541 15.845703 20.076172 C 15.354756 19.615103 14.736942 19.232639 13.990234 18.771484 C 13.635789 18.563017 13.310804 18.428691 12.955078 18.166016 C 12.879443 18.110185 12.777603 18.025656 12.695312 17.958984 C 12.689162 17.954201 12.683834 17.950183 12.677734 17.945312 C 12.078712 17.467768 11.941184 16.644563 12.371094 16.105469 C 12.612854 15.802244 12.981423 15.650915 13.365234 15.664062 C 13.663764 15.674221 13.972297 15.783294 14.234375 15.992188 C 14.319572 16.059628 14.435657 16.149367 14.511719 16.214844 C 14.846956 16.503215 15.051845 16.78681 15.333984 17.085938 C 15.949739 17.711338 16.458849 18.231379 17.017578 18.607422 C 17.311071 18.778413 17.536787 18.709822 17.759766 18.679688 A 20.929252 20.929252 0 0 0 18.210938 19 C 20.335901 16.745449 23.125452 15.074013 26.367188 14.337891 A 16.248561 16.248561 0 0 1 28.625 13.992188 L 28.654297 13.462891 C 28.820507 13.301973 29.007617 13.071473 29.060547 12.818359 C 29.114755 12.147031 29.026876 11.423993 28.921875 10.552734 C 28.863825 10.145618 28.76639 9.8070957 28.75 9.3652344 C 28.7466 9.2746596 28.751014 9.14907 28.751953 9.0449219 C 28.751753 9.0333119 28.75 9.0234998 28.75 9.0117188 C 28.749915 8.2456322 29.308535 7.6231323 29.998047 7.6230469 z M 28.435547 17.308594 A 13.15724 13.15724 0 0 0 27.103516 17.537109 C 24.670633 18.089436 22.560556 19.289272 20.910156 20.912109 L 26.279297 24.71875 L 26.291016 24.712891 C 26.472934 24.845728 26.696924 24.923828 26.939453 24.923828 C 27.531475 24.923828 28.012179 24.45697 28.037109 23.871094 L 28.064453 23.857422 L 28.435547 17.308594 z M 31.564453 17.308594 L 31.935547 23.845703 L 31.941406 23.849609 A 1.0932994 1.0932994 0 0 0 32.181641 24.486328 C 32.550769 24.949104 33.217788 25.035276 33.691406 24.689453 L 33.708984 24.697266 L 39.044922 20.914062 C 37.031961 18.942846 34.404966 17.657917 31.564453 17.308594 z M 18.962891 23.357422 C 17.507719 25.728073 16.816848 28.572936 17.136719 31.498047 L 23.421875 29.683594 L 23.427734 29.662109 A 1.1005556 1.1005556 0 0 0 23.998047 29.285156 C 24.367261 28.822295 24.302004 28.156235 23.859375 27.771484 L 23.865234 27.744141 L 18.962891 23.357422 z M 41 23.361328 L 36.123047 27.724609 L 36.126953 27.738281 A 1.0915067 1.0915067 0 0 0 35.777344 28.322266 C 35.645622 28.899434 35.99295 29.476344 36.558594 29.630859 L 36.564453 29.65625 L 42.880859 31.476562 C 43.01463 30.113758 42.933857 28.703675 42.609375 27.291016 C 42.280967 25.861199 41.728525 24.542214 41 23.361328 z M 28.992188 28.082031 L 27.742188 29.640625 L 28.189453 31.587891 L 29.998047 32.457031 L 31.802734 31.591797 L 32.25 29.642578 L 31.001953 28.082031 L 28.992188 28.082031 z M 35.433594 33.423828 C 35.291287 33.430998 35.148307 33.467473 35.011719 33.533203 C 34.478344 33.790073 34.246744 34.422271 34.478516 34.960938 L 34.470703 34.970703 L 36.994141 41.066406 C 39.426769 39.516647 41.247715 37.200536 42.199219 34.527344 L 35.697266 33.429688 L 35.685547 33.441406 C 35.602399 33.426106 35.518964 33.419528 35.433594 33.423828 z M 24.513672 33.449219 C 24.442732 33.448289 24.369015 33.45552 24.296875 33.46875 L 24.287109 33.455078 L 17.841797 34.548828 C 18.836497 37.300985 20.69662 39.54482 23.03125 41.042969 L 25.527344 35.007812 L 25.509766 34.984375 C 25.598886 34.777444 25.624263 34.543109 25.570312 34.306641 C 25.454982 33.801608 25.009742 33.458172 24.513672 33.451172 L 24.513672 33.449219 z M 29.958984 36.09375 A 1.1020922 1.1020922 0 0 0 29.027344 36.675781 L 29.021484 36.675781 L 25.853516 42.40625 C 28.046773 43.153555 30.468542 43.32126 32.898438 42.769531 A 13.168423 13.168423 0 0 0 34.167969 42.414062 L 30.990234 36.671875 L 30.966797 36.671875 C 30.8606 36.47331 30.691197 36.308382 30.472656 36.203125 A 1.0896286 1.0896286 0 0 0 29.958984 36.09375 z "
     transform="translate(0,-10.44)" />
</svg>
