<?xml version="1.0" encoding="UTF-8" standalone="no"?>
<svg
   xmlns:dc="http://purl.org/dc/elements/1.1/"
   xmlns:cc="http://creativecommons.org/ns#"
   xmlns:rdf="http://www.w3.org/1999/02/22-rdf-syntax-ns#"
   xmlns:svg="http://www.w3.org/2000/svg"
   xmlns="http://www.w3.org/2000/svg"
   xmlns:sodipodi="http://sodipodi.sourceforge.net/DTD/sodipodi-0.dtd"
   xmlns:inkscape="http://www.inkscape.org/namespaces/inkscape"
   id="svg21"
   version="1.1"
   height="43.43758"
   width="159.99921"
   viewBox="0 0 119.9994 32.578184"
   style="isolation:isolate"
   sodipodi:docname="logoDark.svg"
   inkscape:version="1.0.1 (3bc2e813f5, 2020-09-07, custom)">
  <sodipodi:namedview
     pagecolor="#ffffff"
     bordercolor="#666666"
     borderopacity="1"
     objecttolerance="10"
     gridtolerance="10"
     guidetolerance="10"
     inkscape:pageopacity="0"
     inkscape:pageshadow="2"
     inkscape:window-width="1366"
     inkscape:window-height="740"
     id="namedview12"
     showgrid="false"
     inkscape:zoom="2.9123961"
     inkscape:cx="93.308944"
     inkscape:cy="55.586405"
     inkscape:window-x="0"
     inkscape:window-y="312"
     inkscape:window-maximized="1"
     inkscape:current-layer="svg21"
     inkscape:document-rotation="0"
     fit-margin-top="0"
     fit-margin-left="0"
     fit-margin-right="0"
     fit-margin-bottom="0" />
  <metadata
     id="metadata25">
    <rdf:RDF>
      <cc:Work
         rdf:about="">
        <dc:format>image/svg+xml</dc:format>
        <dc:type
           rdf:resource="http://purl.org/dc/dcmitype/StillImage" />
        <dc:title></dc:title>
      </cc:Work>
    </rdf:RDF>
  </metadata>
  <defs
     id="defs5">
    <clipPath
       id="_clipPath_JVpJXDQnEq6h05bW8QerVG6q4FbIHXhJ">
      <rect
         y="0"
         x="0"
         id="rect2"
         height="595.276"
         width="841.89001" />
    </clipPath>
  </defs>
  <g
     transform="matrix(3.1339128,0,0,3.1339128,-1272.1201,966.56151)"
     id="g843"
     style="fill:#808080">
    <path
       style="fill:#808080;stroke-width:0.101266"
       id="path9"
       d="m 424.10317,-299.29924 h -0.37063 v -0.13235 h 0.90754 v 0.13235 h -0.37053 v 1.2478 h -0.16638 z m 1.49488,1.2478 v -1.38015 h 0.73357 v 0.13235 h -0.56719 v 0.4802 h 0.52749 v 0.13236 h -0.52749 v 0.50289 h 0.60496 v 0.13235 z m 2.27382,-1.27048 v 0 0 q -0.1758,0 -0.26278,0.0983 v 0 0 q -0.0775,0.0851 -0.0945,0.2798 v 0 0 q -0.008,0.0813 -0.008,0.2004 v 0 0 q 0,0.11909 0.008,0.20324 v 0 0 q 0.008,0.0841 0.0312,0.15969 v 0 0 q 0.0236,0.0756 0.0633,0.12102 v 0 0 q 0.087,0.0983 0.26278,0.0983 v 0 0 q 0.29114,0 0.30066,-0.31008 v 0 l 0.1361,0.008 v 0 q -0.0133,0.20982 -0.11443,0.32425 v 0 0 q -0.10107,0.11433 -0.32233,0.11433 v 0 0 q -0.3119,0 -0.42532,-0.19281 v 0 0 q -0.0586,-0.0964 -0.0823,-0.22116 v 0 0 q -0.0236,-0.12476 -0.0236,-0.3035 v 0 0 q 0,-0.17863 0.0236,-0.30339 v 0 0 q 0.0237,-0.12486 0.0823,-0.22127 v 0 0 q 0.11342,-0.19088 0.42532,-0.19088 v 0 0 q 0.20608,0 0.30633,0.0936 v 0 0 q 0.10015,0.0936 0.12284,0.26754 v 0 l -0.13418,0.0245 v 0 q -0.0397,-0.24952 -0.29499,-0.24952 z m 2.31929,0.9926 v -1.10227 h 0.16638 v 1.38015 h -0.18157 l -0.65792,-1.10036 v 1.10036 h -0.16639 v -1.38015 h 0.18147 z m 2.22845,0.0945 v 0 0 q -0.0586,0.10208 -0.1683,0.15595 v 0 0 q -0.10967,0.0539 -0.26937,0.0539 v 0 0 q -0.15979,0 -0.26845,-0.0529 v 0 0 q -0.10876,-0.053 -0.16638,-0.15605 v 0 0 q -0.0577,-0.10299 -0.0813,-0.224 v 0 0 q -0.0237,-0.12101 -0.0237,-0.26562 v 0 0 q 0,-0.14461 0.0133,-0.24578 v 0 0 q 0.0133,-0.10115 0.0501,-0.19574 v 0 0 q 0.0368,-0.0945 0.0955,-0.15686 v 0 0 q 0.13043,-0.13611 0.38187,-0.13611 v 0 0 q 0.31767,0 0.43676,0.21176 v 0 0 q 0.0586,0.10207 0.0822,0.22308 v 0 0 q 0.0236,0.12102 0.0236,0.28263 v 0 0 q 0,0.16163 -0.0236,0.28264 v 0 0 q -0.0236,0.12101 -0.0822,0.22309 z m -0.42541,0.0737 v 0 0 q 0.0983,0 0.17488,-0.0444 v 0 0 q 0.0766,-0.0444 0.11626,-0.12658 v 0 0 q 0.0397,-0.0823 0.0567,-0.18157 v 0 0 q 0.017,-0.0992 0.017,-0.22774 v 0 0 q 0,-0.12861 -0.017,-0.22786 v 0 0 q -0.017,-0.0992 -0.0567,-0.18248 v 0 0 q -0.0831,-0.17012 -0.30249,-0.17012 v 0 0 q -0.17579,0 -0.26471,0.11149 v 0 0 q -0.10967,0.13803 -0.10967,0.46897 v 0 0 q 0,0.33083 0.10967,0.46886 v 0 0 q 0.0889,0.11149 0.27606,0.11149 z m 2.2965,0.10967 h -0.68061 v -1.38015 h 0.16638 v 1.2478 h 0.51423 z m 1.89195,-0.18339 v 0 0 q -0.0585,0.10208 -0.16821,0.15595 v 0 0 q -0.10967,0.0539 -0.26946,0.0539 v 0 0 q -0.1597,0 -0.26846,-0.0529 v 0 0 q -0.10866,-0.053 -0.16638,-0.15605 v 0 0 q -0.0576,-0.10299 -0.0813,-0.224 v 0 0 q -0.0236,-0.12101 -0.0236,-0.26562 v 0 0 q 0,-0.14461 0.0133,-0.24578 v 0 0 q 0.0132,-0.10115 0.05,-0.19574 v 0 0 q 0.0369,-0.0945 0.0955,-0.15686 v 0 0 q 0.13054,-0.13611 0.38198,-0.13611 v 0 0 q 0.31757,0 0.43666,0.21176 v 0 0 q 0.0586,0.10207 0.0823,0.22308 v 0 0 q 0.0236,0.12102 0.0236,0.28263 v 0 0 q 0,0.16163 -0.0236,0.28264 v 0 0 q -0.0237,0.12101 -0.0823,0.22309 z m -0.42532,0.0737 v 0 0 q 0.0982,0 0.17489,-0.0444 v 0 0 q 0.0766,-0.0444 0.11625,-0.12658 v 0 0 q 0.0397,-0.0823 0.0567,-0.18157 v 0 0 q 0.017,-0.0992 0.017,-0.22774 v 0 0 q 0,-0.12861 -0.017,-0.22786 v 0 0 q -0.017,-0.0992 -0.0567,-0.18248 v 0 0 q -0.0832,-0.17012 -0.30248,-0.17012 v 0 0 q -0.1759,0 -0.26471,0.11149 v 0 0 q -0.10967,0.13803 -0.10967,0.46897 v 0 0 q 0,0.33083 0.10967,0.46886 v 0 0 q 0.0888,0.11149 0.27605,0.11149 z m 2.39666,-0.47261 h -0.21357 v -0.11159 h 0.36111 v 0.69387 h -0.0907 l -0.0283,-0.16445 v 0 q -0.11727,0.19088 -0.35737,0.19088 v 0 0 q -0.24395,0 -0.36486,-0.12476 v 0 0 q -0.10592,-0.10774 -0.1362,-0.34785 v 0 0 q -0.0113,-0.104 -0.0113,-0.26379 v 0 0 q 0,-0.1597 0.0237,-0.28446 v 0 0 q 0.0236,-0.12486 0.0822,-0.22127 v 0 0 q 0.11342,-0.19089 0.42542,-0.19089 v 0 0 q 0.20608,0 0.30623,0.0936 v 0 0 q 0.10025,0.0936 0.12293,0.26754 v 0 l -0.13428,0.0245 v 0 q -0.0397,-0.24952 -0.29488,-0.24952 v 0 0 q -0.1759,0 -0.26289,0.0983 v 0 0 q -0.0775,0.0888 -0.0945,0.2798 v 0 0 q -0.008,0.0831 -0.008,0.20323 v 0 0 q 0,0.12001 0.008,0.20517 v 0 0 q 0.008,0.0851 0.0303,0.1597 v 0 0 q 0.0227,0.0747 0.0605,0.1201 v 0 0 q 0.0851,0.0945 0.24294,0.0945 v 0 0 q 0.15786,0 0.24009,-0.0766 v 0 0 q 0.0822,-0.0765 0.0936,-0.20699 v 0 z m 1.27372,0.58228 v -1.38015 h 0.16638 v 1.38015 z m 1.14329,0 0.45003,-1.38015 h 0.22116 l 0.45185,1.38015 h -0.16446 l -0.13428,-0.4159 h -0.52557 l -0.13427,0.4159 z m 0.78086,-0.54825 -0.21934,-0.68446 -0.22117,0.68446 z m -20.52778,0.54825 v -1.38015 h 0.73357 v 0.13235 h -0.56719 v 0.4802 h 0.52739 v 0.13236 h -0.52739 v 0.50289 h 0.60496 v 0.13235 z m -12.55168,0 v -1.38015 h 0.41974 v 0 q 0.32516,0 0.44051,0.20415 v 0 0 q 0.0567,0.0983 0.0785,0.21367 v 0 0 q 0.0217,0.11534 0.0217,0.2562 v 0 0 q 0,0.14087 -0.0123,0.23727 v 0 0 q -0.0123,0.0964 -0.0482,0.18815 v 0 0 q -0.0359,0.0916 -0.0946,0.15028 v 0 0 q -0.13417,0.13043 -0.38562,0.13043 v 0 z m 0.41215,-1.2478 v 0 h -0.24578 v 1.11545 h 0.24578 v 0 q 0.18531,0 0.27605,-0.10583 v 0 0 q 0.10582,-0.12861 0.10582,-0.45184 v 0 0 q 0,-0.32335 -0.10582,-0.45196 v 0 0 q -0.0907,-0.10582 -0.27605,-0.10582 z m 1.65184,1.2478 v -1.38015 h 0.73357 v 0.13235 h -0.56718 v 0.4802 h 0.52749 v 0.13236 h -0.52749 v 0.50289 h 0.60495 v 0.13235 z m 2.26248,-0.74866 v 0 q 0.20041,0.0567 0.28264,0.13803 v 0 0 q 0.0822,0.0812 0.0822,0.25043 v 0 0 q 0,0.16921 -0.11807,0.27797 v 0 0 q -0.11818,0.10866 -0.34228,0.10866 v 0 0 q -0.224,0 -0.328,-0.0926 v 0 0 q -0.104,-0.0927 -0.13043,-0.26663 v 0 l 0.1361,-0.0246 v 0 q 0.0359,0.24962 0.30815,0.24962 v 0 0 q 0.30826,0 0.30826,-0.24394 v 0 0 q 0,-0.10583 -0.0568,-0.15687 v 0 0 q -0.0567,-0.051 -0.18906,-0.087 v 0 l -0.12476,-0.0359 v 0 q -0.19473,-0.0529 -0.27413,-0.13519 v 0 0 q -0.0794,-0.0822 -0.0794,-0.25145 v 0 0 q 0,-0.16921 0.11342,-0.27888 v 0 0 q 0.11342,-0.10957 0.32992,-0.10957 v 0 0 q 0.21651,0 0.31484,0.0925 v 0 0 q 0.0982,0.0927 0.12476,0.26664 v 0 l -0.1361,0.0246 v 0 q -0.0359,-0.24963 -0.28739,-0.24963 v 0 0 q -0.29307,0 -0.29307,0.24396 v 0 0 q 0,0.10582 0.0519,0.15787 v 0 0 q 0.0521,0.052 0.17681,0.086 v 0 z m 1.41549,0.74866 v -1.38015 h 0.16638 v 1.38015 z m 2.09236,-0.58228 h -0.21357 v -0.11159 h 0.36111 v 0.69387 h -0.0908 l -0.0283,-0.16445 v 0 q -0.11717,0.19088 -0.35727,0.19088 v 0 0 q -0.24394,0 -0.36496,-0.12476 v 0 0 q -0.10582,-0.10774 -0.1361,-0.34785 v 0 0 q -0.0114,-0.104 -0.0114,-0.26379 v 0 0 q 0,-0.1597 0.0237,-0.28446 v 0 0 q 0.0236,-0.12486 0.0822,-0.22127 v 0 0 q 0.11342,-0.19089 0.42532,-0.19089 v 0 0 q 0.20607,0 0.30633,0.0936 v 0 0 q 0.10015,0.0936 0.12293,0.26754 v 0 l -0.13427,0.0245 v 0 q -0.0397,-0.24952 -0.29499,-0.24952 v 0 0 q -0.1758,0 -0.26279,0.0983 v 0 0 q -0.0775,0.0888 -0.0945,0.2798 v 0 0 q -0.008,0.0831 -0.008,0.20323 v 0 0 q 0,0.12001 0.008,0.20517 v 0 0 q 0.008,0.0851 0.0303,0.1597 v 0 0 q 0.0227,0.0747 0.0605,0.1201 v 0 0 q 0.0851,0.0945 0.24294,0.0945 v 0 0 q 0.15787,0 0.24011,-0.0766 v 0 0 q 0.0822,-0.0765 0.0936,-0.20699 v 0 z m 2.11321,0.3044 v -1.10227 h 0.16638 v 1.38015 h -0.18157 l -0.65792,-1.10036 v 1.10036 h -0.16638 v -1.38015 h 0.18157 z" />
    <path
       style="fill:#808080;stroke-width:0.101266"
       id="path11"
       d="m 442.94548,-298.59625 h 1.26582 v -9.82379 h -38.2906 v 0 9.82379 h 1.26603 v -0.3038 h -0.96223 v -9.21619 0 h 37.683 v 9.21619 h -0.96202 z" />
    <path
       style="fill:#808080;stroke-width:0.101266"
       d="m 422.46438,-308.26799 v 8.3031 h 20.48109 v -8.3031 z m 1.42034,1.73927 h 0.22325 c 0.4692,0 0.8686,0.16131 1.19798,0.48388 0.32932,0.32256 0.49397,0.70267 0.49397,1.14028 0,0.43767 -0.17029,0.81429 -0.51088,1.13004 -0.34066,0.31581 -0.71625,0.47379 -1.12677,0.47379 h -0.0543 v 1.84741 h -0.22325 z m 0.22325,0.19625 v 2.84231 h 0.0543 c 0.37893,0 0.70935,-0.13995 0.99134,-0.41965 0.28199,-0.27969 0.42291,-0.61123 0.42291,-0.99475 0,-0.38346 -0.14322,-0.71737 -0.42973,-1.00159 -0.28645,-0.28422 -0.61457,-0.42632 -0.98452,-0.42632 z m 11.19303,0.73087 c 0.13084,0 0.19625,0.0609 0.19625,0.18275 0,0.12179 -0.0654,0.18275 -0.19625,0.18275 -0.13084,0 -0.19626,-0.061 -0.19626,-0.18275 0,-0.12186 0.0654,-0.18275 0.19626,-0.18275 z m -4.73037,1.02857 c 0.21206,0 0.41512,0.0722 0.60908,0.21658 v 0.27071 c -0.19848,-0.19848 -0.41727,-0.29771 -0.6564,-0.29771 -0.23905,0 -0.44991,0.0903 -0.63266,0.27072 -0.18268,0.18045 -0.27413,0.39013 -0.27413,0.62925 v 2.03016 h -0.21657 v -3.04524 h 0.21657 v 0.45347 c 0.0812,-0.15339 0.20759,-0.27977 0.379,-0.379 0.17141,-0.0992 0.36306,-0.14894 0.57511,-0.14894 z m 6.90931,0 c 0.21205,0 0.41506,0.0722 0.60908,0.21658 v 0.27071 c -0.19855,-0.19848 -0.41734,-0.29771 -0.6564,-0.29771 -0.23912,0 -0.45006,0.0903 -0.63281,0.27072 -0.18268,0.18045 -0.27398,0.39013 -0.27398,0.62925 v 2.03016 h -0.21657 v -3.04524 h 0.21657 v 0.45347 c 0.0812,-0.15339 0.2076,-0.27977 0.379,-0.379 0.17141,-0.0992 0.36306,-0.14894 0.57511,-0.14894 z m 2.62574,0 c 0.28874,0 0.56502,0.0768 0.82892,0.23022 0.2639,0.15339 0.44776,0.35631 0.55152,0.60893 v -0.76468 h 0.21657 v 3.04524 h -0.21657 v -0.75787 c -0.12632,0.25715 -0.31581,0.46008 -0.56843,0.60894 -0.25263,0.14893 -0.52327,0.2234 -0.81201,0.2234 -0.44212,0 -0.82105,-0.1568 -1.13686,-0.47039 -0.31582,-0.31351 -0.4738,-0.68903 -0.4738,-1.12663 0,-0.4376 0.15798,-0.81319 0.4738,-1.12677 0.31581,-0.31352 0.69474,-0.47039 1.13686,-0.47039 z m -12.54632,0.007 c 0.46468,0 0.864,0.18504 1.19784,0.55493 l -2.12496,2.0978 c 0.29327,0.2346 0.57527,0.35186 0.84598,0.35186 0.27065,0 0.51303,-0.062 0.72731,-0.18601 0.21434,-0.12409 0.39138,-0.28985 0.53119,-0.49738 v 0.34503 c -0.32027,0.35193 -0.70816,0.52794 -1.16386,0.52794 h -0.0608 c -0.42862,0 -0.80206,-0.16131 -1.1201,-0.48388 -0.31804,-0.32263 -0.47706,-0.69822 -0.47706,-1.12678 0,-0.42856 0.15798,-0.79954 0.4738,-1.11313 0.31581,-0.31352 0.706,-0.47038 1.17068,-0.47038 z m 5.70465,0 c 0.46468,0 0.864,0.18504 1.19784,0.55493 l -2.1248,2.0978 c 0.29319,0.2346 0.5751,0.35186 0.84582,0.35186 0.27066,0 0.51311,-0.062 0.72745,-0.18601 0.21428,-0.12409 0.39139,-0.28985 0.5312,-0.49738 v 0.34503 c -0.32026,0.35193 -0.70831,0.52794 -1.164,0.52794 h -0.0608 c -0.42856,0 -0.80185,-0.16131 -1.11996,-0.48388 -0.31804,-0.32263 -0.47706,-0.69822 -0.47706,-1.12678 0,-0.42856 0.15783,-0.79954 0.47365,-1.11313 0.31581,-0.31352 0.70601,-0.47038 1.17068,-0.47038 z m 1.9287,0.0745 h 0.21658 v 3.03842 h -0.21658 z m 4.9198,0.10829 c -0.37901,0 -0.70736,0.14092 -0.98482,0.42291 -0.2774,0.28193 -0.41609,0.6125 -0.41609,0.9915 0,0.37893 0.13869,0.70705 0.41609,0.98452 0.27746,0.27747 0.60685,0.41624 0.98808,0.41624 0.38123,0 0.7072,-0.13877 0.97784,-0.41624 0.27072,-0.27747 0.40616,-0.60685 0.40616,-0.98808 0,-0.38124 -0.13647,-0.71165 -0.40942,-0.99135 -0.27294,-0.27969 -0.59891,-0.4195 -0.97784,-0.4195 z m -12.6107,0.007 c -0.35868,0 -0.67679,0.13877 -0.95426,0.41623 -0.27747,0.27741 -0.41609,0.5967 -0.41609,0.95768 0,0.36091 0.11956,0.67664 0.35868,0.94729 l 1.96919,-1.9557 c -0.27969,-0.24357 -0.5989,-0.3655 -0.95752,-0.3655 z m 5.7048,0 c -0.35868,0 -0.6768,0.13877 -0.95426,0.41623 -0.2774,0.27741 -0.41609,0.5967 -0.41609,0.95768 0,0.36091 0.11948,0.67664 0.35853,0.94729 l 1.96934,-1.9557 c -0.27976,-0.24357 -0.59891,-0.3655 -0.95752,-0.3655 z"
       id="path13" />
    <path
       style="fill:#808080;stroke-width:0.101266"
       id="path17"
       d="m 408.27969,-306.5287 h 0.22329 v 4.87919 h 1.57003 v 0.19625 h -1.79332 z m 4.7844,3.80314 v -1.77297 h 0.2165 v 3.04527 h -0.2165 v -0.6159 0 q -0.34511,0.69033 -1.17752,0.69033 v 0 0 q -0.56841,0 -0.95423,-0.3925 v 0 0 q -0.38572,-0.39252 -0.38572,-0.95423 v 0 -1.77297 h 0.21661 v 1.77297 0 q 0,0.46693 0.3282,0.81205 v 0 0 q 0.3282,0.34521 0.79514,0.34521 v 0 0 q 0.46693,0 0.82218,-0.34521 v 0 0 q 0.35534,-0.34512 0.35534,-0.81205 z m 3.78278,-1.77297 h 0.2166 v 3.04527 h -0.2166 v -0.75798 0 q -0.18947,0.38572 -0.56841,0.60902 v 0 0 q -0.37893,0.22339 -0.81204,0.22339 v 0 0 q -0.66319,0 -1.13691,-0.47038 v 0 0 q -0.47373,-0.47028 -0.47373,-1.12668 v 0 0 q 0,-0.6564 0.47373,-1.12679 v 0 0 q 0.47372,-0.47027 1.13691,-0.47027 v 0 0 q 0.43311,0 0.82895,0.23007 v 0 0 q 0.39585,0.23008 0.5515,0.60901 v 0 z m -2.77448,1.52942 v 0 0 q 0,0.56841 0.4161,0.98461 v 0 0 q 0.4162,0.4162 0.98805,0.4162 v 0 0 q 0.57184,0 0.97782,-0.4162 v 0 0 q 0.40608,-0.4162 0.40608,-0.98805 v 0 0 q 0,-0.57184 -0.40942,-0.99139 v 0 0 q -0.40942,-0.41954 -0.97782,-0.41954 v 0 0 q -0.56851,0 -0.98471,0.42298 v 0 0 q -0.4161,0.42289 -0.4161,0.99139 z m 4.01965,-0.25721 v 1.77306 h -0.21651 v -3.04527 h 0.21651 v 0.6158 0 q 0.3451,-0.69022 1.17751,-0.69022 v 0 0 q 0.5684,0 0.95412,0.3925 v 0 0 q 0.38573,0.39251 0.38573,0.95413 v 0 1.77306 h -0.21651 v -1.77306 0 q 0,-0.46694 -0.3282,-0.81205 v 0 0 q -0.3282,-0.34511 -0.79514,-0.34511 v 0 0 q -0.46694,0 -0.82217,0.34511 v 0 0 q -0.35534,0.34511 -0.35534,0.81205 z" />
  </g>
</svg>
