<?xml version="1.0" encoding="UTF-8" standalone="no"?>
<svg
   xmlns:dc="http://purl.org/dc/elements/1.1/"
   xmlns:cc="http://creativecommons.org/ns#"
   xmlns:rdf="http://www.w3.org/1999/02/22-rdf-syntax-ns#"
   xmlns:svg="http://www.w3.org/2000/svg"
   xmlns="http://www.w3.org/2000/svg"
   xmlns:sodipodi="http://sodipodi.sourceforge.net/DTD/sodipodi-0.dtd"
   xmlns:inkscape="http://www.inkscape.org/namespaces/inkscape"
   version="1.1"
   id="svg2"
   width="250"
   height="180"
   viewBox="0 0 250 180"
   sodipodi:docname="pfsense.svg"
   inkscape:version="1.0.2 (e86c870879, 2021-01-15)">
  <metadata
     id="metadata8">
    <rdf:RDF>
      <cc:Work
         rdf:about="">
        <dc:format>image/svg+xml</dc:format>
        <dc:type
           rdf:resource="http://purl.org/dc/dcmitype/StillImage" />
        <dc:title />
      </cc:Work>
    </rdf:RDF>
  </metadata>
  <defs
     id="defs6" />
  <sodipodi:namedview
     pagecolor="#ffffff"
     bordercolor="#666666"
     borderopacity="1"
     objecttolerance="10"
     gridtolerance="10"
     guidetolerance="10"
     inkscape:pageopacity="0"
     inkscape:pageshadow="2"
     inkscape:window-width="1920"
     inkscape:window-height="1020"
     id="namedview4"
     showgrid="false"
     inkscape:zoom="2.8284271"
     inkscape:cx="120.6393"
     inkscape:cy="83.369012"
     inkscape:window-x="1366"
     inkscape:window-y="32"
     inkscape:window-maximized="1"
     inkscape:current-layer="g10"
     showguides="true"
     inkscape:guide-bbox="true"
     inkscape:snap-global="true"
     inkscape:document-rotation="0">
    <sodipodi:guide
       position="12.5,105.55939"
       orientation="1,0"
       id="guide18" />
    <sodipodi:guide
       position="237.5,105.55939"
       orientation="1,0"
       id="guide20" />
  </sodipodi:namedview>
  <g
     inkscape:groupmode="layer"
     id="layer1"
     inkscape:label="bg"
     sodipodi:insensitive="true">
    <rect
       style="fill:#ffffff;stroke:none;stroke-width:2;stroke-linecap:round;stroke-linejoin:round;paint-order:fill markers stroke"
       id="rect33"
       width="250"
       height="180"
       x="0"
       y="0" />
  </g>
  <g
     inkscape:groupmode="layer"
     inkscape:label="Image"
     id="g10">
    <g
       id="g31"
       transform="matrix(1.0220179,0,0,1.0220179,-2.7522341,-1.9816085)">
      <g
         id="g1233"
         transform="matrix(0.17558813,0,0,0.17558813,14.914815,129.61445)">
        <g
           id="g1195"
           transform="translate(-13.349143,-413.94946)">
          <path
             style="fill:#2b40b5;fill-opacity:1;stroke-width:27.4871;stroke-linecap:round;stroke-linejoin:round;paint-order:fill markers stroke"
             d="m 136.85256,174.39123 c -5.92857,-0.0496 -11.85535,0.98633 -17.42968,3 -3.07275,1.10262 -6.31949,2.63248 -9.21094,4.39257 -1.07251,0.65153 -2.2214,1.40141 -3.31836,2.18945 -10.714848,7.62895 -18.344298,19.13246 -22.167958,31.64063 -1.69928,5.29488 -2.45835,10.87716 -2.25586,16.43359 0.24839,4.80232 0.80244,9.81283 3.30273,14.0293 2.58453,4.11192 6.38173,7.46931 10.77149,9.54687 2.42308,1.22876 5.121558,1.6868 7.790998,2.01563 7.9257,0.88374 16.05531,0.85089 23.8379,-1.04883 8.16069,-1.93527 15.43265,-6.59004 21.46679,-12.3125 10.87445,-10.0926 18.04512,-24.30365 18.96485,-39.17383 0.13818,-3.91357 0.37469,-7.93896 -0.75586,-11.74023 -1.15637,-3.2651 -2.7301,-6.44528 -4.82032,-9.24219 -2.79273,-3.83777 -7.03471,-6.40373 -11.54882,-7.70898 -4.7423,-1.37921 -9.7002,-1.92638 -14.62696,-2.02148 z"
             id="path1223" />
          <path
             style="fill:#1475cf;fill-opacity:1;stroke-width:27.4871;stroke-linecap:round;stroke-linejoin:round;paint-order:fill markers stroke"
             d="m 39.676782,13.465443 c -14.55688,0 -26.27734,11.71851 -26.27734,26.27539 V 292.24669 c 15.15673,-53.49419 30.31467,-106.98804 45.4707,-160.48241 16.48569,0.0928 32.97137,0.1878 49.457028,0.2832 -1.96874,7.13256 -3.94377,14.26323 -5.90234,21.39844 1.14379,-1.15224 2.3033,-2.28951 3.50195,-3.38477 6.03357,-5.38057 12.86826,-9.83272 20.08203,-13.46289 10.49108,-5.24621 22.00248,-8.86732 33.80078,-9.09961 2.13877,-0.0368 4.2795,-0.0201 6.41602,0.0879 11.76716,0.58169 23.5711,3.66887 33.59375,9.98633 9.47217,5.86993 17.01308,14.89247 20.79688,25.40039 1.60273,4.36697 2.60396,8.95246 2.85156,13.60156 0.49168,9.32893 0.36205,18.74755 -1.25,27.9707 -1.39609,7.66381 -3.69114,15.14743 -6.50391,22.40429 -5.40855,13.74326 -13.11921,26.55118 -22.49609,37.94922 -7.45069,8.98181 -15.91154,17.24161 -25.6875,23.67383 -7.08326,4.49554 -14.55663,8.40418 -22.36133,11.49219 -6.14981,2.54129 -12.71419,3.95576 -19.32813,4.55859 -11.09421,0.99556 -22.43225,0.15969 -33.113268,-3.0957 -5.22536,-1.63826 -10.40855,-3.81876 -14.66406,-7.33789 -3.40083,-3.23938 -6.03049,-7.17738 -8.61134,-11.07422 -7.53668,26.69934 -15.07632,53.39785 -22.61133,80.09766 H 336.23928 c 14.55689,0 26.27735,-11.71852 26.27735,-26.27539 V 80.686143 c -1.51625,-0.42363 -3.02923,-0.8367 -4.59571,-1.16211 -3.72914,-0.67875 -7.5611,-0.5359 -11.3164,-0.1582 -5.10078,0.66048 -10.34846,1.76268 -14.66211,4.71484 -3.41991,2.22695 -5.72904,5.72724 -7.46485,9.34571 -2.74564,5.835312 -4.484,12.070607 -6.33789,18.228517 -1.98844,6.83987 -3.89051,13.94395 -5.67383,20.95508 9.6543,0.052 19.30859,0.10475 28.9629,0.15625 2.20596,7.81235 4.40617,15.62632 6.60937,23.43945 -6.2872,6.34042 -12.57197,12.68324 -18.85742,19.02539 -9.75196,-0.0271 -19.50391,-0.0562 -29.25586,-0.084 -12.02428,42.08848 -24.04706,84.17739 -36.07227,126.26561 -17.41015,-0.10607 -34.82031,-0.20963 -52.23047,-0.31445 11.66568,-41.92345 23.3335,-83.84631 35,-125.76952 -6.92773,-0.0764 -13.85548,-0.15072 -20.7832,-0.22853 3.97081,-14.39765 7.92057,-28.78457 11.87109,-43.1875 h 20.63477 c 3.10782,-10.84848 6.02393,-21.75426 9.47266,-32.501945 3.12812,-9.631832 6.54081,-19.247812 11.48242,-28.121092 4.58001,-8.30913 10.82316,-15.72667 18.42773,-21.42383 10.21745,-7.78817 22.64058,-12.21426 35.23047,-14.28515 8.37854,-1.40807 16.89427,-1.73003 25.37695,-1.66602 0.69871,-6e-4 1.39701,-10e-4 2.09571,-0.002 0.47677,-0.006 0.95584,-9.2e-4 1.43359,-0.004 -2.63995,-11.73034 -13.07467,-20.44336 -25.625,-20.44336 z"
             id="rect237-5-6" />
          <path
             id="path1140-3"
             style="fill:#2b40b5;fill-opacity:1"
             d="m 388.8969,282.37493 c 9.75649,-10.70394 21.65947,-23.51308 31.46796,-34.16959 15.31572,17.99669 30.22035,20.87465 50.75348,16.583 6.39097,-1.33578 9.78286,-5.96474 9.78286,-11.25412 0,-4.9498 -3.07999,-8.70625 -9.42767,-11.49826 -5.12234,-2.25305 -7.67071,-2.94989 -30.91984,-8.45487 -15.68821,-3.71468 -27.67827,-9.12007 -34.60809,-15.60211 -10.07027,-9.41956 -14.51274,-24.25474 -12.18929,-40.70495 3.20798,-22.71276 18.9039,-38.58802 44.90619,-45.41927 18.55103,-4.87367 48.15626,-3.20926 61.23563,2.299 13.07937,5.50825 19.50136,9.81645 25.39189,16.46758 l -15.38452,15.40857 -15.38451,15.40857 c -13.59879,-17.06131 -36.97272,-16.94996 -47.49573,-7.80705 -2.85488,3.06436 -3.5254,8.25478 -1.59255,12.32794 2.51571,5.30147 7.03721,7.11008 32.94427,13.17778 30.13285,7.05742 42.46775,14.50404 49.72937,30.02177 2.76785,5.91475 3.21513,8.06965 3.59657,17.32755 0.71765,17.41804 -2.81271,27.2125 -13.73288,38.09984 -9.75454,9.72521 -23.16423,15.84131 -41.8173,18.46623 -31.74718,4.46756 -59.48405,1.13186 -87.25584,-20.67761 z m 229.89865,20.60287 c -32.23028,-5.83505 -59.00072,-27.92732 -68.34251,-56.39958 -3.84998,-11.73411 -4.86141,-19.88077 -4.27427,-34.42759 0.6013,-14.89794 2.66509,-23.53688 8.3463,-34.93741 11.77128,-23.62151 32.7935,-39.51671 60.70391,-45.89909 12.9785,-2.96784 33.9152,-2.93112 45.17222,0.0792 21.94076,5.86739 36.88236,18.1373 47.05468,38.64086 7.04749,14.20513 10.44532,31.64297 10.44532,53.60598 v 8.89405 h -60.625 -60.625 c 5.34345,23.57704 21.34767,33.446 35.78023,34.38107 19.10604,1.23786 31.68541,-6.02708 41.66879,-20.52873 4.39483,2.62172 35.66797,26.16184 35.66797,26.16184 -23.14667,26.34394 -54.39595,36.64799 -90.97264,30.4294 z m 48.15,-104.44358 c 0,0 -0.54087,-9.70606 -3.75357,-15.82383 -3.0903,-5.88469 -10.19378,-12.62005 -16.84989,-15.12883 -12.55311,-4.73142 -30.15493,-1.01878 -39.70575,8.37489 -4.6487,4.57221 -8.57549,12.13387 -9.39104,18.08395 l -0.61595,4.49382 z m 294.45561,104.40353 c -32.5084,-5.55328 -44.7708,-20.22752 -44.7708,-20.22752 0,0 23.0829,-25.63654 31.0969,-34.55251 18.1081,25.40512 63.06934,23.51046 61.51614,3.23231 -1.3209,-7.04096 -7.732,-9.9074 -37.04474,-16.89805 -19.9387,-4.75504 -30.644,-9.39565 -38.3907,-16.64177 -6.404,-5.99018 -9.4121,-11.11375 -11.3484,-19.32952 -4.4565,-18.90829 0.4255,-37.1973 13.353,-50.02357 18.3262,-18.18274 51.38307,-24.35577 85.03094,-15.87864 9.5045,2.39451 22.1925,8.63248 28.0577,13.7943 l 4.5,3.96034 c 0,0 -21.7185,21.16443 -31.3855,30.27746 -14.579,-15.47974 -31.89917,-15.57705 -42.94017,-10.29028 -6.43617,3.40992 -8.80757,10.11495 -5.70157,16.12117 2.0847,4.03146 8.30047,6.69527 24.76507,10.61331 30.64917,7.29348 40.08287,11.08498 48.70977,19.5768 10.0035,9.84698 13.6381,20.04518 12.7809,35.86195 -0.2831,5.22538 -1.2733,11.76122 -2.2004,14.52409 -4.8596,14.4827 -19.855,27.29 -38.5282,32.90605 -14.7863,4.44709 -41.39227,5.72569 -57.49994,2.97408 z m 185.83414,0.18049 c -41.9327,-7.98739 -69.9971,-37.74938 -73.1818,-77.60853 -4.113,-51.4781 28.0732,-89.71902 80.8477,-96.05625 35.5594,-4.27003 63.8184,9.99211 80.0178,39.72396 12.8279,23.54417 10.3311,40.06122 10.4822,63.3596 l -60.375,-0.001 -60.375,-0.001 c 7.0966,44.24315 62.6675,42.076 77.7082,13.76657 0,0 34.5418,25.57168 34.5418,26.17807 -17.3416,24.8056 -51.4377,36.78444 -89.6659,30.63938 z m 46.4157,-110.40641 c -1.0011,-11.04105 -8.8648,-21.19294 -19.5288,-25.21147 -8.2341,-3.10286 -21.3403,-2.47676 -29.4378,1.40627 -10.5944,5.08039 -18.4136,15.16846 -19.5463,25.21815 l -0.497,4.40944 h 34.7689 34.769 z m -456.7498,23.80461 v -83.50033 h 49.10831 v 23.81969 c 0,0 10.78646,-16.09365 23.0336,-21.60277 10.60192,-4.76905 16.6196,-6.216 29.85809,-6.08507 28.56359,0.28252 46.62696,12.43133 54.10056,36.38626 4.2107,13.49634 4.8593,24.29479 4.8799,81.25 l 0.019,53.75 h -50.88512 l -0.32313,-51.75 c -0.29389,-47.06658 -0.48796,-52.2025 -2.14445,-56.75 -6.08575,-14.82644 -12.29329,-17.89758 -25.64726,-17.92722 -13.27192,-0.0295 -20.04341,3.52604 -25.54808,12.91905 -4.9608,8.46497 -5.41569,13.96953 -5.43456,65.75817 l -0.0174,47.75 h -51 z" />
          <path
             id="rect237-5"
             style="fill:#1c1275;fill-opacity:1;stroke-width:27.4871;stroke-linecap:round;stroke-linejoin:round;paint-order:fill markers stroke"
             d="m 223.4678,176.57482 c 0,0 0.36205,18.74756 -1.25,27.97071 -1.39609,7.66381 -3.69114,15.14743 -6.50391,22.40429 -5.40855,13.74326 -13.11921,26.55118 -22.49609,37.94922 -7.45069,8.98181 -15.91154,17.24161 -25.6875,23.67383 -7.08326,4.49554 -14.55663,8.40418 -22.36133,11.49219 -6.14981,2.54129 -12.71419,3.95576 -19.32813,4.55859 -11.09421,0.99556 -22.43225,0.15969 -33.113279,-3.0957 -5.22536,-1.63826 -10.40855,-3.81876 -14.66406,-7.33789 -3.400823,-3.23938 -6.030483,-7.17738 -8.611333,-11.07422 -7.53668,26.69934 -15.07632,53.39785 -22.61133,80.09766 H 336.23928 c 14.55689,0 26.27735,-11.71852 26.27735,-26.27539 V 80.686138 c -1.51625,-0.42363 -3.02923,-0.8367 -4.59571,-1.16211 -3.72914,-0.67875 -7.5611,-0.5359 -11.3164,-0.1582 -5.10078,0.66048 -10.34846,1.76268 -14.66211,4.71484 -3.41991,2.22695 -5.72904,5.72724 -7.46485,9.34571 -2.74564,5.83531 -4.484,12.070602 -6.33789,18.228512 -1.98844,6.83987 -3.89051,13.94395 -5.67383,20.95508 9.6543,0.052 19.30859,0.10475 28.9629,0.15625 2.20596,7.81235 4.40617,15.62632 6.60937,23.43945 -6.2872,6.34042 -12.57197,12.68324 -18.85742,19.02539 -9.75196,-0.0271 -19.50391,-0.0562 -29.25586,-0.084 -12.02428,42.08849 -24.04706,84.1774 -36.07227,126.26562 -17.41015,-0.10607 -34.82031,-0.20963 -52.23047,-0.31445 11.66568,-41.92345 23.3335,-83.84631 35,-125.76953 -6.92773,-0.0764 -20.7832,-0.22852 -20.7832,-0.22852 z"
             sodipodi:nodetypes="cccccccccccsscccccccccccccccc" />
          <g
             aria-label="R"
             transform="scale(1.0888448,0.91840455)"
             id="text1183"
             style="font-style:normal;font-variant:normal;font-weight:normal;font-stretch:normal;font-size:25.8078px;line-height:1.25;font-family:Cantarell;-inkscape-font-specification:Cantarell;fill:#2b40b5;fill-opacity:1;stroke:none;stroke-width:0.645195">
            <path
               d="m 1142.7341,345.91852 h 2.142 v -7.25199 l 4.0541,0.0106 c 0,0 0.8086,0.71792 2.0343,2.55396 1.2258,1.83605 2.1701,4.68741 2.1701,4.68741 h 2.555 c 0,0 -1.6232,-3.6289 -2.7812,-5.39345 -1.158,-1.76455 -1.761,-2.34889 -1.761,-2.34889 2.1679,-0.85166 3.5099,-2.76144 3.5099,-5.16156 0,-3.14855 -2.3227,-5.00672 -5.9874,-5.00672 h -5.9358 z m 2.142,-9.05854 v -6.99391 h 3.5357 c 2.5549,0 4.0518,1.31619 4.0518,3.53566 0,2.19367 -1.342,3.45825 -3.7937,3.45825 z"
               style="fill:#2b40b5;fill-opacity:1;stroke-width:0.645195"
               id="path1185"
               sodipodi:nodetypes="cccczcczcssccccsssc" />
          </g>
          <path
             style="color:#000000;font-style:normal;font-variant:normal;font-weight:normal;font-stretch:normal;font-size:medium;line-height:normal;font-family:sans-serif;font-variant-ligatures:normal;font-variant-position:normal;font-variant-caps:normal;font-variant-numeric:normal;font-variant-alternates:normal;font-variant-east-asian:normal;font-feature-settings:normal;font-variation-settings:normal;text-indent:0;text-align:start;text-decoration:none;text-decoration-line:none;text-decoration-style:solid;text-decoration-color:#000000;letter-spacing:normal;word-spacing:normal;text-transform:none;writing-mode:lr-tb;direction:ltr;text-orientation:mixed;dominant-baseline:auto;baseline-shift:baseline;text-anchor:start;white-space:normal;shape-padding:0;shape-margin:0;inline-size:0;clip-rule:nonzero;display:inline;overflow:visible;visibility:visible;opacity:1;isolation:auto;mix-blend-mode:normal;color-interpolation:sRGB;color-interpolation-filters:linearRGB;solid-color:#000000;solid-opacity:1;vector-effect:none;fill:#2b40b5;fill-opacity:1;fill-rule:nonzero;stroke:none;stroke-linecap:round;stroke-linejoin:round;stroke-miterlimit:4;stroke-dasharray:none;stroke-dashoffset:0;stroke-opacity:1;paint-order:fill markers stroke;color-rendering:auto;image-rendering:auto;shape-rendering:auto;text-rendering:auto;enable-background:accumulate;stop-color:#000000;stop-opacity:1"
             d="m 1251.3184,293.49805 c -8.7603,0 -15.8809,7.12259 -15.8809,15.88281 0,8.76022 7.1206,15.88281 15.8809,15.88281 8.7602,0 15.8828,-7.12259 15.8828,-15.88281 0,-8.76022 -7.1226,-15.88281 -15.8828,-15.88281 z m 0,1.92968 c 7.717,0 13.9531,6.23606 13.9531,13.95313 0,7.71707 -6.2361,13.95312 -13.9531,13.95312 -7.7171,0 -13.9512,-6.23605 -13.9512,-13.95312 0,-7.71707 6.2341,-13.95313 13.9512,-13.95313 z"
             id="path1188" />
        </g>
      </g>
    </g>
  </g>
</svg>
