<?xml version="1.0" encoding="UTF-8" standalone="no"?>
<svg
   xmlns:dc="http://purl.org/dc/elements/1.1/"
   xmlns:cc="http://creativecommons.org/ns#"
   xmlns:rdf="http://www.w3.org/1999/02/22-rdf-syntax-ns#"
   xmlns:svg="http://www.w3.org/2000/svg"
   xmlns="http://www.w3.org/2000/svg"
   xmlns:sodipodi="http://sodipodi.sourceforge.net/DTD/sodipodi-0.dtd"
   xmlns:inkscape="http://www.inkscape.org/namespaces/inkscape"
   version="1.1"
   id="svg2"
   width="250"
   height="180"
   viewBox="0 0 250 180"
   sodipodi:docname="samba.svg"
   inkscape:version="1.0.2 (e86c870879, 2021-01-15)">
  <metadata
     id="metadata8">
    <rdf:RDF>
      <cc:Work
         rdf:about="">
        <dc:format>image/svg+xml</dc:format>
        <dc:type
           rdf:resource="http://purl.org/dc/dcmitype/StillImage" />
        <dc:title />
      </cc:Work>
    </rdf:RDF>
  </metadata>
  <defs
     id="defs6">
    <rect
       id="SVGID_1_"
       y="0"
       width="168"
       height="44" />
  </defs>
  <sodipodi:namedview
     pagecolor="#ffffff"
     bordercolor="#666666"
     borderopacity="1"
     objecttolerance="10"
     gridtolerance="10"
     guidetolerance="10"
     inkscape:pageopacity="0"
     inkscape:pageshadow="2"
     inkscape:window-width="1920"
     inkscape:window-height="1020"
     id="namedview4"
     showgrid="false"
     inkscape:zoom="2.6538601"
     inkscape:cx="147.94193"
     inkscape:cy="70.186244"
     inkscape:window-x="1366"
     inkscape:window-y="32"
     inkscape:window-maximized="1"
     inkscape:current-layer="g10"
     showguides="true"
     inkscape:guide-bbox="true"
     inkscape:snap-global="true"
     inkscape:document-rotation="0">
    <sodipodi:guide
       position="12.5,107.65085"
       orientation="1,0"
       id="guide18" />
    <sodipodi:guide
       position="237.5,107.65085"
       orientation="1,0"
       id="guide20" />
  </sodipodi:namedview>
  <g
     inkscape:groupmode="layer"
     id="layer1"
     inkscape:label="bg"
     sodipodi:insensitive="true">
    <rect
       style="fill:#ffffff;stroke:none;stroke-width:2;stroke-linecap:round;stroke-linejoin:round;paint-order:fill markers stroke"
       id="rect33"
       width="250"
       height="180"
       x="0"
       y="0" />
  </g>
  <g
     inkscape:groupmode="layer"
     inkscape:label="Image"
     id="g10">
    <path
       style="fill:#e2001a;fill-opacity:1;stroke-width:0.0584372"
       d="m 15.158944,106.52983 c -1.455367,-1.98341 -2.651871,-3.62977 -2.658896,-3.65859 -0.007,-0.0288 1.183729,-1.63242 2.646121,-3.563576 l 2.658895,-3.511177 0.01505,3.564555 c 0.0083,1.960498 0.0083,5.186898 0,7.169768 l -0.01505,3.60521 z m 4.194709,-3.68285 v -3.184831 l 13.630494,-0.0019 c 9.090591,-9.09e-4 13.718081,-0.02135 13.893461,-0.06137 0.413159,-0.09408 0.66815,-0.296402 0.856194,-0.679358 L 47.90026,98.58053 v -2.074535 c 0,-2.013352 -0.0038,-2.082722 -0.128413,-2.352591 -0.07063,-0.152939 -0.215262,-0.357567 -0.321406,-0.45473 -0.405483,-0.371177 0.499964,-0.348292 -13.779656,-0.348292 -14.371579,0 -13.382185,0.0263 -13.830986,-0.367743 -0.1174,-0.103074 -0.268236,-0.305747 -0.335189,-0.450379 -0.120766,-0.260866 -0.121877,-0.315997 -0.138972,-6.895597 -0.01788,-6.881009 3.65e-4,-7.578778 0.221563,-8.443399 0.378147,-1.478542 1.320143,-2.377527 2.863627,-2.732871 l 0.555154,-0.127809 15.617362,-0.01763 15.617361,-0.01763 v 3.185482 3.185484 L 40.464119,80.6835 c -13.321511,0.0147 -13.783345,0.01881 -13.981118,0.12431 -0.287347,0.153277 -0.45889,0.321268 -0.604669,0.592146 -0.122385,0.227407 -0.125798,0.293251 -0.125798,2.426707 v 2.19296 l 0.149294,0.290104 c 0.106039,0.206051 0.231686,0.341049 0.433675,0.465939 l 0.284383,0.17586 11.925809,0.0326 c 10.666604,0.02916 11.968998,0.04252 12.334866,0.126471 1.790423,0.410831 2.710697,1.269759 3.174882,2.963234 l 0.153284,0.559236 0.01854,5.461859 c 0.01268,3.734158 -0.0016,5.591464 -0.04504,5.871564 -0.150658,0.97101 -0.576649,1.7822 -1.340558,2.55276 -0.890633,0.89838 -1.728488,1.32707 -2.837674,1.4519 -0.341499,0.0384 -5.807909,0.0594 -15.588141,0.0597 l -15.062208,5.4e-4 z m 44.777598,-10.942373 0.01628,-14.12721 0.132989,-0.496718 c 0.32582,-1.216959 0.919415,-2.009233 1.83115,-2.444045 0.579867,-0.276543 1.034959,-0.393296 1.85338,-0.475482 0.85895,-0.08626 26.30561,-0.08392 26.926745,0.0025 1.003356,0.139552 1.771201,0.496562 2.48333,1.154628 0.462338,0.427236 1.010906,1.21381 1.232407,1.767115 0.358717,0.896057 0.337687,-0.03881 0.337687,15.011231 V 106.03185 H 95.789599 92.63399 V 99.691371 93.350925 H 81.530905 70.427823 v 6.340446 6.340439 h -3.156421 -3.15643 z M 92.633995,84.50829 c 0,-2.876493 -0.005,-2.913982 -0.46472,-3.373534 -0.503133,-0.503131 0.381138,-0.464715 -10.696801,-0.464715 -10.680554,0 -10.165754,-0.01581 -10.569823,0.324211 -0.09544,0.0803 -0.234745,0.27031 -0.309566,0.422229 -0.135482,0.275086 -0.136106,0.286998 -0.153415,2.9205 l -0.01739,2.644286 h 11.10585 11.105853 z m 15.076805,7.846903 c 0,-9.317856 0.0199,-13.85517 0.0625,-14.236851 0.0763,-0.683994 0.29084,-1.446111 0.53974,-1.917181 0.25965,-0.491374 0.907,-1.123915 1.3939,-1.361965 0.50595,-0.247363 1.14099,-0.406736 1.91208,-0.479859 0.86032,-0.08157 16.90654,-0.07958 17.20081,0.0021 0.46044,0.127877 0.98414,0.659814 1.15979,1.178058 0.0844,0.248692 0.11289,0.286487 0.14568,0.192552 0.28184,-0.807568 0.6754,-1.25725 1.19963,-1.370771 0.23537,-0.05097 2.41763,-0.06361 8.55563,-0.04956 l 8.23965,0.01888 0.46751,0.130155 c 0.73911,0.205782 1.3785,0.558344 1.89679,1.045903 0.72922,0.685997 1.17762,1.406799 1.47822,2.376179 l 0.13039,0.42045 0.0161,13.864243 0.0161,13.864244 h -3.18535 -3.18535 l -0.0151,-12.169563 c -0.014,-11.223986 -0.0227,-12.183184 -0.1124,-12.344875 -0.1396,-0.251694 -0.44372,-0.544604 -0.71778,-0.691325 l -0.23683,-0.126795 h -5.28859 -5.28857 l -0.27916,0.137465 c -0.15354,0.07561 -0.34308,0.221264 -0.42119,0.323683 -0.33853,0.443823 -0.32229,-0.203267 -0.32229,12.845609 v 11.967391 h -3.15494 -3.15492 l -0.0153,-12.081914 -0.0152,-12.081907 -0.13662,-0.277422 c -0.0752,-0.152581 -0.24536,-0.370502 -0.37827,-0.484264 -0.4605,-0.39417 -0.27146,-0.382691 -6.00648,-0.364767 l -5.16609,0.01613 -0.23374,0.126132 c -0.31931,0.172308 -0.53345,0.411251 -0.64054,0.714774 -0.0798,0.226276 -0.0899,1.614783 -0.0899,12.373265 v 12.118433 h -3.18483 -3.18483 z m 52.41824,-2.188987 V 74.298468 l 15.47127,0.01557 15.47125,0.01557 0.45505,0.129642 c 1.83115,0.521704 3.20331,2.14981 3.4368,4.077843 0.0337,0.278274 0.0499,2.478003 0.04,5.434666 l -0.0167,4.967167 -0.12857,0.240328 c -0.17743,0.331654 -0.66456,0.753667 -1.02861,0.8911 -0.24701,0.09326 -0.28192,0.122174 -0.18687,0.154812 0.39588,0.135941 0.86632,0.412431 1.02258,0.600999 0.36564,0.441264 0.35734,0.294112 0.33704,5.981148 -0.0182,5.081687 -0.0204,5.170167 -0.14438,5.609337 -0.4493,1.5917 -1.85948,3.00246 -3.45716,3.45858 l -0.4462,0.12738 -15.41283,0.0157 -15.41283,0.0157 z m 27.7577,9.357925 c 0.3444,-0.183216 0.5813,-0.451251 0.67363,-0.762155 0.10738,-0.361561 0.12593,-4.032211 0.0224,-4.443119 -0.0798,-0.317008 -0.34291,-0.640466 -0.65791,-0.808921 l -0.24271,-0.129788 -10.62098,-0.01523 -10.62097,-0.01523 v 3.157007 3.15701 l 10.62097,-0.01532 c 10.23009,-0.01474 10.6285,-0.01944 10.8255,-0.124187 z m 0.1475,-12.747916 c 0.20188,-0.124825 0.32769,-0.259943 0.43368,-0.465776 l 0.14929,-0.289943 0.0174,-2.017809 c 0.0123,-1.421792 -0.004,-2.091339 -0.0516,-2.266753 -0.0846,-0.30465 -0.45175,-0.733917 -0.7765,-0.907633 L 187.56526,80.69926 177.00272,80.68403 166.44019,80.6688 v 3.156856 3.156857 l 10.65479,-0.01523 10.65477,-0.01523 z m 14.63713,5.410199 c 0,-9.641896 0.0192,-13.984189 0.0635,-14.302524 0.19261,-1.387221 0.85258,-2.48597 1.79491,-2.988231 0.47711,-0.254297 1.22652,-0.456728 1.9665,-0.531204 0.88749,-0.08932 26.30849,-0.09011 26.95032,-9.13e-4 0.25009,0.03478 0.65304,0.12615 0.89541,0.203035 1.42299,0.451388 2.63999,1.804562 3.04054,3.380788 0.11604,0.456582 0.11748,0.63124 0.11748,14.273306 v 13.811079 h -3.15562 -3.1556 V 99.691304 93.350857 H 220.08569 208.9826 v 6.340447 6.340446 h -3.15561 -3.15561 z m 28.51739,-7.678124 c 0,-2.870909 -0.006,-2.914804 -0.45933,-3.368158 -0.51155,-0.511545 0.42972,-0.470091 -10.67409,-0.470091 -10.65646,0 -10.13967,-0.01539 -10.57269,0.31489 -0.10775,0.08219 -0.25776,0.275056 -0.33337,0.428597 -0.13733,0.278874 -0.13749,0.281935 -0.15485,2.923453 l -0.0173,2.644286 h 11.10585 11.10586 z M 55.701637,77.078096 c 0,-3.981136 0.0095,-7.227474 0.02108,-7.21408 0.01159,0.01338 1.230918,1.671507 2.709602,3.6847 l 2.688512,3.660352 -2.655486,3.498215 c -1.460518,1.924018 -2.679837,3.523196 -2.709602,3.553729 -0.0332,0.03407 -0.05412,-2.741712 -0.05412,-7.182916 z"
       id="path26" />
  </g>
  <style
     type="text/css"
     id="style21">
	.st0{clip-path:url(#SVGID_2_);fill:#D40000;}
	.st1{clip-path:url(#SVGID_2_);fill:#FFFFFF;}
</style>
</svg>
