<?xml version="1.0" encoding="UTF-8" standalone="no"?>
<svg
   xmlns:dc="http://purl.org/dc/elements/1.1/"
   xmlns:cc="http://creativecommons.org/ns#"
   xmlns:rdf="http://www.w3.org/1999/02/22-rdf-syntax-ns#"
   xmlns:svg="http://www.w3.org/2000/svg"
   xmlns="http://www.w3.org/2000/svg"
   xmlns:sodipodi="http://sodipodi.sourceforge.net/DTD/sodipodi-0.dtd"
   xmlns:inkscape="http://www.inkscape.org/namespaces/inkscape"
   version="1.1"
   id="svg2"
   width="250"
   height="180"
   viewBox="0 0 250 180"
   sodipodi:docname="truenas.svg"
   inkscape:version="1.0.2 (e86c870879, 2021-01-15)">
  <metadata
     id="metadata8">
    <rdf:RDF>
      <cc:Work
         rdf:about="">
        <dc:format>image/svg+xml</dc:format>
        <dc:type
           rdf:resource="http://purl.org/dc/dcmitype/StillImage" />
        <dc:title />
      </cc:Work>
    </rdf:RDF>
  </metadata>
  <defs
     id="defs6">
    <rect
       id="SVGID_1_"
       y="0"
       width="168"
       height="44" />
  </defs>
  <sodipodi:namedview
     pagecolor="#ffffff"
     bordercolor="#666666"
     borderopacity="1"
     objecttolerance="10"
     gridtolerance="10"
     guidetolerance="10"
     inkscape:pageopacity="0"
     inkscape:pageshadow="2"
     inkscape:window-width="1920"
     inkscape:window-height="1020"
     id="namedview4"
     showgrid="false"
     inkscape:zoom="2.6538601"
     inkscape:cx="147.94193"
     inkscape:cy="70.186244"
     inkscape:window-x="1366"
     inkscape:window-y="32"
     inkscape:window-maximized="1"
     inkscape:current-layer="g10"
     showguides="true"
     inkscape:guide-bbox="true"
     inkscape:snap-global="true"
     inkscape:document-rotation="0">
    <sodipodi:guide
       position="12.5,107.79172"
       orientation="1,0"
       id="guide18" />
    <sodipodi:guide
       position="237.5,107.79172"
       orientation="1,0"
       id="guide20" />
  </sodipodi:namedview>
  <g
     inkscape:groupmode="layer"
     id="layer1"
     inkscape:label="bg"
     sodipodi:insensitive="true">
    <rect
       style="fill:#ffffff;stroke:none;stroke-width:2;stroke-linecap:round;stroke-linejoin:round;paint-order:fill markers stroke"
       id="rect33"
       width="250"
       height="180"
       x="0"
       y="0" />
  </g>
  <g
     inkscape:groupmode="layer"
     inkscape:label="Image"
     id="g10">
    <g
       id="full-rgb"
       transform="matrix(0.64059438,0,0,0.64059438,12.079385,65.342198)">
      <g
         id="type">
        <path
           id="type_CompoundPathItem_"
           data-name="type &lt;CompoundPathItem&gt;"
           d="m 127.6108,7.9448 v 5.6822 h -15.2977 v 44.5819 h -6.2644 V 13.627 H 90.751 V 7.9448 Z"
           style="fill:#0095d5" />
        <path
           id="type_CompoundPathItem_2"
           data-name="type &lt;CompoundPathItem&gt;"
           d="m 147.35,29.6535 a 6.9207,6.9207 0 0 0 -6.1178,-3.06 c -4.4455,0 -7.7944,3.3511 -7.7944,8.8144 v 22.801 H 127.609 V 21.7858 h 5.8288 v 3.57 c 1.5278,-2.55 4.0056,-4.1533 8.4489,-4.1533 4.9533,0 8.0855,1.6755 10.4166,4.9544 z"
           style="fill:#0095d5" />
        <path
           id="type_CompoundPathItem_3"
           data-name="type &lt;CompoundPathItem&gt;"
           d="m 185.1571,58.2089 h -5.8288 V 54.64 c -1.8211,2.7678 -4.3689,4.1522 -9.76,4.1522 -7.7944,0 -13.2577,-4.08 -13.2577,-14.2788 V 21.7858 h 5.8266 v 22.6554 c 0,7.3577 4.0056,8.96 8.3044,8.96 a 8.4879,8.4879 0 0 0 8.8867,-8.8877 V 21.7858 h 5.8288 z"
           style="fill:#0095d5" />
        <path
           id="type_CompoundPathItem_4"
           data-name="type &lt;CompoundPathItem&gt;"
           d="m 219.6836,52.6723 c -2.55,4.4444 -6.4111,6.12 -12.7477,6.12 -9.7622,0 -15.591,-6.3377 -15.591,-16.4632 V 37.52 c 0,-10.3432 4.8811,-16.3176 14.4243,-16.3176 9.6155,0 14.4244,5.901 14.4244,16.3176 v 3.789 h -23.02 v 1.02 c 0,6.2644 2.9878,11.2177 9.3244,11.2177 4.7344,0 7.14,-1.3833 8.6677,-4.0789 z m -22.51,-16.4633 h 17.1188 c -0.2911,-6.1188 -2.9856,-9.761 -8.5233,-9.761 -5.6076,0 -8.232,3.7155 -8.5954,9.761 z"
           style="fill:#0095d5" />
        <path
           id="type_CompoundPathItem_5"
           data-name="type &lt;CompoundPathItem&gt;"
           d="m 265.6488,7.9448 v 50.2641 h -7.5032 l -20.47,-34.1653 v 34.1653 h -8.16 V 7.9448 H 236.8 l 20.6887,34.602 V 7.9448 Z"
           style="fill:#0095d5" />
        <path
           id="type_CompoundPathItem_6"
           data-name="type &lt;CompoundPathItem&gt;"
           d="M 271.3266,58.2089 288.811,7.9448 h 8.0132 l 17.4822,50.2641 h -8.9589 L 301.922,47.7923 H 283.7832 L 280.36,58.2089 Z m 14.7877,-17.701 h 13.4044 l -6.7022,-20.3243 z"
           style="fill:#0095d5" />
        <path
           id="type_CompoundPathItem_7"
           data-name="type &lt;CompoundPathItem&gt;"
           d="m 345.4839,20.11 c -2.4777,-3.4233 -5.1721,-5.4633 -10.8543,-5.4633 -5.1722,0 -8.2322,2.3311 -8.2322,6.5556 0,4.8088 3.7889,6.7021 10.7821,8.2321 10.1255,2.1856 15.37,5.9733 15.37,15.0066 0,7.5033 -5.0278,14.4232 -17.1188,14.4232 -8.5955,0 -14.6432,-2.6222 -18.7954,-8.231 l 6.63,-4.59 c 2.9856,3.57 5.9733,5.4633 11.7277,5.4633 6.9211,0 9.1055,-3.0589 9.1055,-6.7011 0,-4.0066 -2.2567,-6.4833 -10.9988,-8.3777 -9.69,-2.04 -15.1532,-6.7022 -15.1532,-15.2254 0,-7.5755 4.9533,-13.9133 16.7554,-13.9133 8.0133,0 13.6232,2.6956 17.191,8.2322 z"
           style="fill:#0095d5" />
        <path
           id="type_CompoundPathItem_8"
           data-name="type &lt;CompoundPathItem&gt;"
           d="m 109.3234,76.9685 c -2.2781,0 -3.8168,-1.3757 -3.8168,-4.585 v -1.3018 c 0,-3.21 1.5387,-4.5856 3.8168,-4.5856 2.2922,0 3.831,1.3757 3.831,4.5856 v 1.3018 c 0,3.2093 -1.5388,4.585 -3.831,4.585 z m -2.1008,-4.585 c 0,2.2036 0.74,3.0911 2.1008,3.0911 1.3608,0 2.1149,-0.8875 2.1149,-3.0911 v -1.3018 c 0,-2.2042 -0.7546,-3.0917 -2.1149,-3.0917 -1.3603,0 -2.1008,0.8875 -2.1008,3.0917 z"
           style="fill:#aeadae" />
        <path
           id="type_CompoundPathItem_9"
           data-name="type &lt;CompoundPathItem&gt;"
           d="m 118.1837,73.108 v 3.7275 h -1.716 V 66.6291 h 3.4764 c 2.3519,0 3.7571,1.1245 3.7571,3.2247 0,2.0711 -1.3905,3.2542 -3.7571,3.2542 z m 1.5825,-1.4791 c 1.5683,0 2.219,-0.6063 2.219,-1.7751 0,-1.1092 -0.6507,-1.73 -2.219,-1.73 h -1.5825 v 3.5054 z"
           style="fill:#aeadae" />
        <path
           id="type_CompoundPathItem_10"
           data-name="type &lt;CompoundPathItem&gt;"
           d="m 132.9172,66.6291 v 1.4944 h -4.5412 v 2.6917 h 4.0974 v 1.4791 h -4.0974 v 3.0622 h 4.5412 v 1.479 H 126.66 V 66.6291 Z"
           style="fill:#aeadae" />
        <path
           id="type_CompoundPathItem_11"
           data-name="type &lt;CompoundPathItem&gt;"
           d="m 143.3606,66.6291 v 10.2064 h -1.5234 l -4.1565,-6.9374 v 6.9374 h -1.657 V 66.6291 h 1.4791 l 4.2009,7.0261 v -7.0261 z"
           style="fill:#aeadae" />
        <path
           id="type_CompoundPathItem_12"
           data-name="type &lt;CompoundPathItem&gt;"
           d="m 157.577,69.1 a 2.38,2.38 0 0 0 -2.2041,-1.11 c -1.05,0 -1.6717,0.4733 -1.6717,1.3313 0,0.9762 0.7694,1.3609 2.1894,1.6717 2.0558,0.4438 3.1212,1.2126 3.1212,3.0469 0,1.5234 -1.0211,2.9286 -3.4764,2.9286 a 4.3657,4.3657 0 0 1 -3.8162,-1.6711 l 1.3461,-0.9319 a 2.7332,2.7332 0 0 0 2.3815,1.1091 c 1.4052,0 1.849,-0.621 1.849,-1.3609 0,-0.8131 -0.4586,-1.3165 -2.2337,-1.7007 -1.9672,-0.4142 -3.0764,-1.3609 -3.0764,-3.0917 0,-1.5382 1.0058,-2.8252 3.402,-2.8252 a 3.8073,3.8073 0 0 1 3.4906,1.6717 z"
           style="fill:#aeadae" />
        <path
           id="type_CompoundPathItem_13"
           data-name="type &lt;CompoundPathItem&gt;"
           d="m 168.6415,66.6291 v 1.4944 h -2.9286 v 8.712 h -1.716 v -8.712 h -2.9435 v -1.4944 z"
           style="fill:#aeadae" />
        <path
           id="type_CompoundPathItem_14"
           data-name="type &lt;CompoundPathItem&gt;"
           d="m 174.6931,76.9685 c -2.278,0 -3.8162,-1.3757 -3.8162,-4.585 v -1.3018 c 0,-3.21 1.5382,-4.5856 3.8162,-4.5856 2.2922,0 3.831,1.3757 3.831,4.5856 v 1.3018 c 0,3.2093 -1.5388,4.585 -3.831,4.585 z m -2.1007,-4.585 c 0,2.2036 0.74,3.0911 2.1007,3.0911 1.3607,0 2.1149,-0.8875 2.1149,-3.0911 v -1.3018 c 0,-2.2042 -0.7546,-3.0917 -2.1149,-3.0917 -1.3603,0 -2.1007,0.8875 -2.1007,3.0917 z"
           style="fill:#aeadae" />
        <path
           id="type_CompoundPathItem_15"
           data-name="type &lt;CompoundPathItem&gt;"
           d="m 187.5026,76.8355 -1.9672,-4.1418 h -1.982 v 4.1418 h -1.716 V 66.6291 h 3.4764 c 2.3519,0 3.7571,1.0211 3.7571,3.0474 a 2.6654,2.6654 0 0 1 -1.849,2.7365 l 2.1741,4.4225 z m -2.3075,-5.6208 c 1.45,0 2.16,-0.3847 2.16,-1.5382 0,-1.1535 -0.71,-1.553 -2.16,-1.553 h -1.6417 v 3.0912 z"
           style="fill:#aeadae" />
        <path
           id="type_CompoundPathItem_16"
           data-name="type &lt;CompoundPathItem&gt;"
           d="m 191.3194,76.8355 3.55,-10.2064 h 1.6268 l 3.55,10.2064 h -1.8189 l -0.6955,-2.1149 h -3.6832 l -0.695,2.1149 z m 3.0025,-3.5945 h 2.7218 l -1.3609,-4.1265 z"
           style="fill:#aeadae" />
        <path
           id="type_CompoundPathItem_17"
           data-name="type &lt;CompoundPathItem&gt;"
           d="m 209.6924,71.5993 v 0.7842 c 0,3.2093 -1.4649,4.585 -3.7572,4.585 -2.278,0 -3.8162,-1.3757 -3.8162,-4.585 v -1.2279 c 0,-3.2838 1.5382,-4.66 3.8162,-4.66 a 3.493,3.493 0 0 1 3.7123,3.2986 h -1.6564 a 1.9582,1.9582 0 0 0 -2.0559,-1.8047 c -1.3609,0 -2.1007,0.8875 -2.1007,3.0917 v 1.3018 c 0,2.2036 0.74,3.0911 2.1007,3.0911 1.3013,0 1.9525,-0.7693 2.0707,-2.3814 H 205.98 v -1.4934 z"
           style="fill:#aeadae" />
        <path
           id="type_CompoundPathItem_18"
           data-name="type &lt;CompoundPathItem&gt;"
           d="m 219.263,66.6291 v 1.4944 h -4.5413 v 2.6917 h 4.0975 v 1.4791 h -4.0975 v 3.0622 h 4.5413 v 1.479 h -6.2573 V 66.6291 Z"
           style="fill:#aeadae" />
      </g>
      <g
         id="logoMark">
        <polygon
           id="logoMark_PathItem_"
           data-name="logoMark &lt;PathItem&gt;"
           points="74.211,39.112 40.356,58.667 40.356,42.855 74.211,23.299 "
           style="fill:#31beec" />
        <path
           id="logoMark_PathItem_2"
           data-name="logoMark &lt;PathItem&gt;"
           d="M 33.878,42.8547 V 58.6675 L 0,39.1117 V 23.2989 L 15.3085,32.13 a 0.25,0.25 0 0 0 0.0559,0.0335 z"
           style="fill:#0095d5" />
        <polygon
           id="logoMark_PathItem_3"
           data-name="logoMark &lt;PathItem&gt;"
           points="37.117,37.251 23.411,29.339 37.117,21.427 50.811,29.339 "
           style="fill:#aeadae" />
        <polygon
           id="logoMark_PathItem_4"
           data-name="logoMark &lt;PathItem&gt;"
           points="57.278,25.608 40.356,15.824 40.356,0 70.984,17.696 "
           style="fill:#0095d5" />
        <polygon
           id="logoMark_PathItem_5"
           data-name="logoMark &lt;PathItem&gt;"
           points="33.878,15.824 16.933,25.596 3.228,17.696 33.878,0 "
           style="fill:#31beec" />
      </g>
    </g>
  </g>
  <style
     type="text/css"
     id="style21">
	.st0{clip-path:url(#SVGID_2_);fill:#D40000;}
	.st1{clip-path:url(#SVGID_2_);fill:#FFFFFF;}
</style>
</svg>
