<?xml version="1.0" encoding="UTF-8" standalone="no"?>
<svg
   xmlns:dc="http://purl.org/dc/elements/1.1/"
   xmlns:cc="http://creativecommons.org/ns#"
   xmlns:rdf="http://www.w3.org/1999/02/22-rdf-syntax-ns#"
   xmlns:svg="http://www.w3.org/2000/svg"
   xmlns="http://www.w3.org/2000/svg"
   xmlns:xlink="http://www.w3.org/1999/xlink"
   xmlns:sodipodi="http://sodipodi.sourceforge.net/DTD/sodipodi-0.dtd"
   xmlns:inkscape="http://www.inkscape.org/namespaces/inkscape"
   version="1.1"
   id="svg2"
   width="250"
   height="180"
   viewBox="0 0 250 180"
   sodipodi:docname="zabbix.svg"
   inkscape:version="1.0.2 (e86c870879, 2021-01-15)">
  <metadata
     id="metadata8">
    <rdf:RDF>
      <cc:Work
         rdf:about="">
        <dc:format>image/svg+xml</dc:format>
        <dc:type
           rdf:resource="http://purl.org/dc/dcmitype/StillImage" />
        <dc:title />
      </cc:Work>
    </rdf:RDF>
  </metadata>
  <defs
     id="defs6">
    <rect
       id="SVGID_1_"
       y="0"
       width="168"
       height="44" />
  </defs>
  <sodipodi:namedview
     pagecolor="#ffffff"
     bordercolor="#666666"
     borderopacity="1"
     objecttolerance="10"
     gridtolerance="10"
     guidetolerance="10"
     inkscape:pageopacity="0"
     inkscape:pageshadow="2"
     inkscape:window-width="1920"
     inkscape:window-height="1020"
     id="namedview4"
     showgrid="false"
     inkscape:zoom="2.6538601"
     inkscape:cx="133.42671"
     inkscape:cy="89.207218"
     inkscape:window-x="1366"
     inkscape:window-y="32"
     inkscape:window-maximized="1"
     inkscape:current-layer="g10"
     showguides="true"
     inkscape:guide-bbox="true"
     inkscape:snap-global="true"
     inkscape:document-rotation="0">
    <sodipodi:guide
       position="12.5,63.791977"
       orientation="1,0"
       id="guide18" />
    <sodipodi:guide
       position="237.5,116.20802"
       orientation="1,0"
       id="guide20" />
  </sodipodi:namedview>
  <g
     inkscape:groupmode="layer"
     id="layer1"
     inkscape:label="bg"
     sodipodi:insensitive="true">
    <rect
       style="fill:#ffffff;stroke:none;stroke-width:2;stroke-linecap:round;stroke-linejoin:round;paint-order:fill markers stroke"
       id="rect33"
       width="250"
       height="180"
       x="0"
       y="0" />
  </g>
  <g
     inkscape:groupmode="layer"
     inkscape:label="Image"
     id="g10">
    <g
       id="g45"
       transform="matrix(1.3392857,0,0,1.3392857,12.499996,60.535713)">
      <g
         id="g43">
        <defs
           id="defs24">
          <rect
             id="rect56"
             y="0"
             width="168"
             height="44"
             x="0" />
        </defs>
        <clipPath
           id="SVGID_2_">
          <use
             xlink:href="#SVGID_1_"
             style="overflow:visible"
             id="use26"
             x="0"
             y="0"
             width="100%"
             height="100%" />
        </clipPath>
        <rect
           x="0"
           y="0"
           class="st0"
           width="168"
           height="44"
           clip-path="url(#SVGID_2_)"
           id="rect29" />
        <polygon
           class="st1"
           points="26.3,10.2 7.2,10.2 7.2,6.7 31.5,6.7 31.5,9.9 11.9,33.8 32,33.8 32,37.3 6.7,37.3 6.7,34.1 "
           clip-path="url(#SVGID_2_)"
           id="polygon31" />
        <path
           class="st1"
           d="M 48.4,10.8 42.7,26 H 54.1 Z M 46,6.7 h 4.7 l 11.8,30.6 h -4.3 l -2.8,-7.8 h -14 l -2.8,7.8 h -4.4 z"
           clip-path="url(#SVGID_2_)"
           id="path33" />
        <path
           class="st1"
           d="m 71.2,22.7 v 11.2 h 6.7 c 2.3,0 3.9,-0.5 5,-1.4 1.1,-0.9 1.6,-2.3 1.6,-4.2 0,-1.9 -0.5,-3.3 -1.6,-4.2 -1.1,-0.9 -2.8,-1.4 -5,-1.4 z m 0,-12.6 v 9.2 h 6.2 c 2,0 3.6,-0.4 4.6,-1.1 1,-0.8 1.5,-1.9 1.5,-3.5 C 83.5,13.2 83,12 82,11.2 81,10.4 79.5,10.1 77.4,10.1 Z M 67,6.7 h 10.7 c 3.2,0 5.6,0.7 7.4,2 1.7,1.3 2.6,3.2 2.6,5.6 0,1.9 -0.4,3.4 -1.3,4.5 -0.9,1.1 -2.2,1.8 -3.9,2.1 2.1,0.4 3.7,1.3 4.8,2.7 1.1,1.4 1.7,3.1 1.7,5.2 0,2.7 -0.9,4.8 -2.8,6.3 -1.9,1.5 -4.5,2.2 -8,2.2 H 67 Z"
           clip-path="url(#SVGID_2_)"
           id="path35" />
        <path
           class="st1"
           d="m 99.9,22.7 v 11.2 h 6.7 c 2.2,0 3.9,-0.5 5,-1.4 1.1,-0.9 1.6,-2.3 1.6,-4.2 0,-1.9 -0.5,-3.3 -1.6,-4.2 -1.1,-0.9 -2.8,-1.4 -5,-1.4 z m 0,-12.6 v 9.2 h 6.2 c 2,0 3.6,-0.4 4.6,-1.1 1,-0.8 1.5,-1.9 1.5,-3.5 0,-1.5 -0.5,-2.7 -1.5,-3.5 -1,-0.8 -2.5,-1.1 -4.6,-1.1 z M 95.7,6.7 h 10.7 c 3.2,0 5.6,0.7 7.4,2 1.7,1.3 2.6,3.2 2.6,5.6 0,1.9 -0.4,3.4 -1.3,4.5 -0.9,1.1 -2.2,1.8 -3.9,2.1 2.1,0.4 3.7,1.3 4.8,2.7 1.1,1.4 1.7,3.1 1.7,5.2 0,2.7 -0.9,4.8 -2.8,6.3 -1.9,1.5 -4.5,2.2 -8,2.2 H 95.7 Z"
           clip-path="url(#SVGID_2_)"
           id="path37" />
        <polygon
           class="st1"
           points="160.1,6.7 150.5,21 161.3,37.3 156.7,37.3 148.2,24.5 139.7,37.3 135.2,37.3 146,21.1 136.4,6.7 141,6.7 148.3,17.7 155.7,6.7 "
           clip-path="url(#SVGID_2_)"
           id="polygon39" />
        <rect
           x="124.3"
           y="6.6999998"
           class="st1"
           width="4.1999998"
           height="30.6"
           clip-path="url(#SVGID_2_)"
           id="rect41" />
      </g>
    </g>
  </g>
  <style
     type="text/css"
     id="style21">
	.st0{clip-path:url(#SVGID_2_);fill:#D40000;}
	.st1{clip-path:url(#SVGID_2_);fill:#FFFFFF;}
</style>
</svg>
